<svg width="247" height="251" viewBox="0 0 247 251" fill="none" xmlns="http://www.w3.org/2000/svg">
<path d="M94.2196 28.8731C110.295 12.4724 136.705 12.4724 152.78 28.8731L218.87 96.3006C234.496 112.243 234.496 137.757 218.87 153.699L152.78 221.127C136.705 237.528 110.295 237.528 94.2196 221.127L28.13 153.699C12.5039 137.757 12.5039 112.243 28.13 96.3006L94.2196 28.8731Z" fill="#57C282"/>
<path d="M79.9409 118.876C79.9409 119.107 79.8254 119.87 79.5942 121.164C79.3631 122.435 79.132 124.157 78.9009 126.33C78.6698 128.479 78.5542 130.721 78.5542 133.055C78.5542 135.066 78.6813 136.915 78.9355 138.602C79.2129 140.266 79.6636 141.838 80.2876 143.317C80.9116 144.796 81.6974 146.056 82.645 147.096C83.5926 148.113 84.7829 148.922 86.2158 149.522C87.6719 150.1 89.3244 150.389 91.1733 150.389C92.4214 150.389 93.5423 150.25 94.5361 149.973C95.5531 149.673 96.362 149.372 96.9629 149.072C97.5638 148.771 97.9798 148.621 98.2109 148.621C98.7656 148.621 99.043 148.922 99.043 149.522C99.043 149.777 98.939 150.146 98.731 150.632C98.5229 151.094 98.1416 151.649 97.5869 152.296C97.0553 152.92 96.4082 153.509 95.6455 154.064C94.9059 154.619 93.9121 155.092 92.6641 155.485C91.4391 155.878 90.0871 156.075 88.6079 156.075C77.0981 156.075 71.3433 148.644 71.3433 133.783C71.3433 127.751 71.9211 123.695 73.0767 121.615C73.6776 120.552 74.5789 119.616 75.7808 118.807C76.9826 117.998 77.9648 117.593 78.7275 117.593C79.5365 117.593 79.9409 118.021 79.9409 118.876ZM100.742 135.69H87.4639C86.4701 135.69 85.9731 135.332 85.9731 134.615C85.9731 134.292 86.2043 133.714 86.6665 132.882C87.1287 132.027 87.6834 131.31 88.3306 130.732C88.8621 130.247 89.7173 130.004 90.896 130.004H106.081C106.936 130.004 107.514 130.143 107.814 130.42C108.138 130.675 108.369 131.172 108.507 131.911C108.692 132.836 108.785 134.211 108.785 136.037C108.785 139.989 108.184 143.64 106.982 146.992C106.173 149.187 105.087 150.932 103.723 152.227C102.36 153.498 101.158 154.133 100.118 154.133C99.6785 154.133 99.459 153.948 99.459 153.579C99.459 153.394 99.4937 153.232 99.563 153.093C99.6323 152.955 99.771 152.747 99.979 152.469C100.21 152.192 100.418 151.903 100.603 151.603C102.082 149.13 102.822 145.478 102.822 140.647C102.822 139.931 102.81 139.376 102.787 138.983C102.787 138.567 102.741 138.128 102.648 137.666C102.579 137.181 102.475 136.811 102.336 136.557C102.198 136.302 101.99 136.094 101.712 135.933C101.458 135.771 101.135 135.69 100.742 135.69ZM105.353 109.412C105.353 110.313 104.752 111.226 103.55 112.15C102.371 113.075 101.343 113.537 100.464 113.537C99.8172 113.537 98.9621 113.329 97.8989 112.913C96.8358 112.474 95.5646 112.046 94.0854 111.63C92.6063 111.191 91.0462 110.972 89.4053 110.972C87.0247 110.972 84.6442 111.445 82.2637 112.393C79.8831 113.341 77.7915 114.6 75.9888 116.172C74.8101 117.212 74.0474 117.732 73.7007 117.732C73.1691 117.732 72.9033 117.443 72.9033 116.865C72.9033 116.472 73.1113 115.918 73.5273 115.201C73.9434 114.462 74.3594 113.861 74.7754 113.398C77.2253 110.694 79.9409 108.672 82.9224 107.332C85.9269 105.968 89.4746 105.286 93.5654 105.286C96.362 105.286 99.0199 105.691 101.539 106.5C104.081 107.285 105.353 108.256 105.353 109.412ZM142.239 112.046H113.846C112.852 112.046 112.355 111.688 112.355 110.972C112.355 110.648 112.587 110.059 113.049 109.204C113.511 108.348 114.054 107.644 114.678 107.089C115.21 106.604 116.065 106.361 117.244 106.361H145.637C146.631 106.361 147.127 106.719 147.127 107.436C147.127 107.759 146.896 108.348 146.434 109.204C145.972 110.059 145.429 110.764 144.805 111.318C144.273 111.804 143.418 112.046 142.239 112.046ZM125.633 153.856L125.599 116.207C125.599 115.375 125.876 114.831 126.431 114.577C127.008 114.3 127.887 114.161 129.065 114.161C130.36 114.161 131.261 114.3 131.77 114.577C132.301 114.831 132.567 115.375 132.567 116.207V150.181C132.567 151.175 132.336 151.949 131.874 152.504C131.273 153.22 130.441 153.879 129.377 154.48C128.337 155.058 127.494 155.347 126.847 155.347C126.038 155.347 125.633 154.85 125.633 153.856ZM179.195 112.046H150.802C149.808 112.046 149.312 111.688 149.312 110.972C149.312 110.648 149.543 110.059 150.005 109.204C150.467 108.348 151.01 107.644 151.634 107.089C152.166 106.604 153.021 106.361 154.2 106.361H182.593C183.587 106.361 184.083 106.719 184.083 107.436C184.083 107.759 183.852 108.348 183.39 109.204C182.928 110.059 182.385 110.764 181.761 111.318C181.229 111.804 180.374 112.046 179.195 112.046ZM162.589 153.856L162.555 116.207C162.555 115.375 162.832 114.831 163.387 114.577C163.965 114.3 164.843 114.161 166.021 114.161C167.316 114.161 168.217 114.3 168.726 114.577C169.257 114.831 169.523 115.375 169.523 116.207V150.181C169.523 151.175 169.292 151.949 168.83 152.504C168.229 153.22 167.397 153.879 166.333 154.48C165.293 155.058 164.45 155.347 163.803 155.347C162.994 155.347 162.589 154.85 162.589 153.856Z" fill="black"/>
</svg>
