<svg width="247" height="252" viewBox="0 0 247 252" fill="none" xmlns="http://www.w3.org/2000/svg">
<path d="M94.2196 29.8731C110.295 13.4724 136.705 13.4724 152.78 29.8731L218.87 97.3006C234.496 113.243 234.496 138.757 218.87 154.699L152.78 222.127C136.705 238.528 110.295 238.528 94.2196 222.127L28.13 154.699C12.5039 138.757 12.5039 113.243 28.13 97.3006L94.2196 29.8731Z" fill="#57C282"/>
<path d="M70.354 116.876C70.354 117.107 70.2384 117.87 70.0073 119.164C69.7762 120.435 69.5451 122.157 69.314 124.33C69.0828 126.479 68.9673 128.721 68.9673 131.055C68.9673 133.066 69.0944 134.915 69.3486 136.602C69.626 138.266 70.0767 139.838 70.7007 141.317C71.3247 142.796 72.1105 144.056 73.0581 145.096C74.0057 146.113 75.196 146.922 76.6289 147.522C78.085 148.1 79.7375 148.389 81.5864 148.389C82.8345 148.389 83.9554 148.25 84.9492 147.973C85.9661 147.673 86.7751 147.372 87.376 147.072C87.9769 146.771 88.3929 146.621 88.624 146.621C89.1787 146.621 89.4561 146.922 89.4561 147.522C89.4561 147.777 89.3521 148.146 89.144 148.632C88.936 149.094 88.5547 149.649 88 150.296C87.4684 150.92 86.8213 151.509 86.0586 152.064C85.319 152.619 84.3252 153.092 83.0771 153.485C81.8522 153.878 80.5002 154.075 79.021 154.075C67.5112 154.075 61.7563 146.644 61.7563 131.783C61.7563 125.751 62.3341 121.695 63.4897 119.615C64.0907 118.552 64.992 117.616 66.1938 116.807C67.3957 115.998 68.3779 115.593 69.1406 115.593C69.9495 115.593 70.354 116.021 70.354 116.876ZM91.1548 133.69H77.877C76.8831 133.69 76.3862 133.332 76.3862 132.615C76.3862 132.292 76.6174 131.714 77.0796 130.882C77.5418 130.027 78.0965 129.31 78.7437 128.732C79.2752 128.247 80.1304 128.004 81.3091 128.004H96.4937C97.3488 128.004 97.9266 128.143 98.2271 128.42C98.5506 128.675 98.7817 129.172 98.9204 129.911C99.1053 130.836 99.1978 132.211 99.1978 134.037C99.1978 137.989 98.5968 141.64 97.395 144.992C96.5861 147.187 95.4998 148.932 94.1362 150.227C92.7726 151.498 91.5708 152.133 90.5308 152.133C90.0916 152.133 89.8721 151.948 89.8721 151.579C89.8721 151.394 89.9067 151.232 89.9761 151.093C90.0454 150.955 90.1841 150.747 90.3921 150.469C90.6232 150.192 90.8312 149.903 91.0161 149.603C92.4953 147.13 93.2349 143.478 93.2349 138.647C93.2349 137.931 93.2233 137.376 93.2002 136.983C93.2002 136.567 93.154 136.128 93.0615 135.666C92.9922 135.181 92.8882 134.811 92.7495 134.557C92.6108 134.302 92.4028 134.094 92.1255 133.933C91.8713 133.771 91.5477 133.69 91.1548 133.69ZM95.7656 107.412C95.7656 108.313 95.1647 109.226 93.9629 110.15C92.7842 111.075 91.7557 111.537 90.8774 111.537C90.2303 111.537 89.3752 111.329 88.312 110.913C87.2489 110.474 85.9777 110.046 84.4985 109.63C83.0194 109.191 81.4593 108.972 79.8184 108.972C77.4378 108.972 75.0573 109.445 72.6768 110.393C70.2962 111.341 68.2046 112.6 66.4019 114.172C65.2231 115.212 64.4604 115.732 64.1138 115.732C63.5822 115.732 63.3164 115.443 63.3164 114.865C63.3164 114.472 63.5244 113.918 63.9404 113.201C64.3564 112.462 64.7725 111.861 65.1885 111.398C67.6383 108.694 70.354 106.672 73.3354 105.332C76.34 103.968 79.8877 103.286 83.9785 103.286C86.7751 103.286 89.4329 103.691 91.9521 104.5C94.4945 105.285 95.7656 106.256 95.7656 107.412ZM112.302 104.361H130.988C131.982 104.361 132.479 104.719 132.479 105.436C132.479 105.759 132.248 106.348 131.786 107.204C131.323 108.036 130.769 108.741 130.122 109.318C129.59 109.804 128.746 110.046 127.591 110.046H107.691C107.345 110.046 107.09 110.035 106.929 110.012C106.767 109.965 106.617 109.861 106.478 109.7C106.362 109.538 106.305 109.307 106.305 109.006C106.305 108.151 106.975 107.169 108.315 106.06C109.679 104.927 111.008 104.361 112.302 104.361ZM106.339 151.509V134.418C106.339 133.586 106.617 133.043 107.171 132.789C107.749 132.511 108.639 132.373 109.841 132.373C111.135 132.373 112.036 132.511 112.545 132.789C113.053 133.043 113.308 133.586 113.308 134.418V145.893C113.308 146.841 113.781 147.314 114.729 147.314H131.682C132.675 147.314 133.172 147.673 133.172 148.389C133.172 148.713 132.941 149.314 132.479 150.192C132.017 151.047 131.474 151.752 130.85 152.307C130.318 152.769 129.463 153 128.284 153H107.553C106.744 153 106.339 152.503 106.339 151.509ZM106.339 128.871V114.207C106.339 113.375 106.617 112.82 107.171 112.542C107.749 112.265 108.639 112.126 109.841 112.126C111.135 112.126 112.036 112.265 112.545 112.542C113.053 112.797 113.308 113.351 113.308 114.207V123.186C113.308 124.133 113.781 124.607 114.729 124.607H128.839C129.833 124.607 130.33 124.965 130.33 125.682C130.33 126.005 130.098 126.595 129.636 127.45C129.174 128.282 128.631 128.987 128.007 129.564C127.475 130.05 126.62 130.292 125.441 130.292H107.761C106.813 130.292 106.339 129.819 106.339 128.871ZM145.826 128.732C146.057 129.703 146.173 130.94 146.173 132.442V148.389C146.173 149.499 145.942 150.354 145.479 150.955C144.925 151.602 144.22 152.168 143.365 152.653C142.51 153.116 141.909 153.347 141.562 153.347C140.753 153.347 140.349 152.85 140.349 151.856V119.025C140.349 118.748 140.418 118.528 140.557 118.367C140.695 118.182 140.869 118.089 141.077 118.089C141.423 118.089 141.77 118.436 142.117 119.129C142.486 119.823 143.134 121.302 144.058 123.567C145.029 125.994 145.618 127.715 145.826 128.732ZM154.354 144.506L140.557 108.625C140.372 108.186 140.279 107.758 140.279 107.342C140.279 106.788 140.499 106.268 140.938 105.782C141.47 105.135 142.174 104.627 143.053 104.257C143.931 103.864 144.613 103.667 145.098 103.667C145.607 103.667 146 103.783 146.277 104.014C146.577 104.245 146.855 104.673 147.109 105.297L158.827 136.81C159.243 137.943 159.451 138.867 159.451 139.583C159.451 140.161 159.312 140.855 159.035 141.664C158.48 143.073 157.937 144.183 157.405 144.992C156.92 145.754 156.4 146.136 155.845 146.136C155.568 146.136 155.314 146.02 155.083 145.789C154.851 145.558 154.609 145.13 154.354 144.506ZM172.867 128.282L165.622 147.106C164.859 149.002 163.657 150.515 162.016 151.648C160.421 152.78 159.185 153.347 158.307 153.347C157.613 153.347 157.267 153.023 157.267 152.376C157.267 152.099 157.382 151.694 157.613 151.163L171.792 113.583C172.208 112.727 172.544 112.242 172.798 112.126C172.937 112.057 173.075 112.022 173.214 112.022C173.745 112.022 174.081 112.473 174.219 113.375C174.358 114.183 174.427 116.056 174.427 118.991C174.427 120.817 174.323 122.423 174.115 123.81C173.93 125.173 173.514 126.664 172.867 128.282ZM183.476 105.158V148.181C183.476 149.314 183.244 150.157 182.782 150.712C182.204 151.405 181.372 152.018 180.286 152.549C179.223 153.081 178.356 153.347 177.686 153.347C176.9 153.347 176.507 152.85 176.507 151.856V108.833C176.507 107.862 176.738 107.088 177.201 106.51C177.802 105.794 178.634 105.147 179.697 104.569C180.76 103.968 181.615 103.667 182.262 103.667C183.071 103.667 183.476 104.164 183.476 105.158Z" fill="black"/>
</svg>
