<svg width="247" height="252" viewBox="0 0 247 252" fill="none" xmlns="http://www.w3.org/2000/svg">
<path d="M94.2196 29.8731C110.295 13.4724 136.705 13.4724 152.78 29.8731L218.87 97.3006C234.496 113.243 234.496 138.757 218.87 154.699L152.78 222.127C136.705 238.528 110.295 238.528 94.2196 222.127L28.13 154.699C12.5039 138.757 12.5039 113.243 28.13 97.3006L94.2196 29.8731Z" fill="#57C282"/>
<path d="M82.0449 119.788C82.0449 120.052 81.9131 120.922 81.6494 122.398C81.3857 123.849 81.1221 125.813 80.8584 128.292C80.5947 130.744 80.4629 133.301 80.4629 135.964C80.4629 138.258 80.6079 140.368 80.8979 142.292C81.2144 144.191 81.7285 145.984 82.4404 147.671C83.1523 149.359 84.0488 150.796 85.1299 151.982C86.2109 153.143 87.5688 154.065 89.2036 154.751C90.8647 155.41 92.75 155.74 94.8594 155.74C96.2832 155.74 97.562 155.582 98.6958 155.265C99.856 154.922 100.779 154.58 101.464 154.237C102.15 153.894 102.625 153.723 102.888 153.723C103.521 153.723 103.837 154.065 103.837 154.751C103.837 155.041 103.719 155.463 103.481 156.017C103.244 156.544 102.809 157.177 102.176 157.915C101.57 158.627 100.832 159.299 99.9614 159.932C99.1177 160.565 97.9839 161.105 96.5601 161.554C95.1626 162.002 93.6201 162.226 91.9326 162.226C78.8018 162.226 72.2363 153.749 72.2363 136.795C72.2363 129.913 72.8955 125.286 74.2139 122.913C74.8994 121.7 75.9277 120.632 77.2988 119.709C78.6699 118.786 79.7905 118.325 80.6606 118.325C81.5835 118.325 82.0449 118.812 82.0449 119.788ZM105.775 138.97H90.6274C89.4937 138.97 88.9268 138.562 88.9268 137.744C88.9268 137.375 89.1904 136.716 89.7178 135.767C90.2451 134.791 90.8779 133.974 91.6162 133.314C92.2227 132.761 93.1982 132.484 94.543 132.484H111.866C112.842 132.484 113.501 132.642 113.844 132.958C114.213 133.249 114.477 133.815 114.635 134.659C114.846 135.714 114.951 137.283 114.951 139.366C114.951 143.875 114.266 148.041 112.895 151.864C111.972 154.369 110.732 156.359 109.177 157.836C107.621 159.286 106.25 160.011 105.063 160.011C104.562 160.011 104.312 159.8 104.312 159.378C104.312 159.167 104.352 158.983 104.431 158.825C104.51 158.667 104.668 158.429 104.905 158.113C105.169 157.796 105.406 157.467 105.617 157.124C107.305 154.303 108.148 150.137 108.148 144.626C108.148 143.809 108.135 143.176 108.109 142.728C108.109 142.253 108.056 141.752 107.951 141.225C107.872 140.671 107.753 140.249 107.595 139.959C107.437 139.669 107.199 139.432 106.883 139.247C106.593 139.062 106.224 138.97 105.775 138.97ZM111.036 108.991C111.036 110.019 110.35 111.061 108.979 112.115C107.634 113.17 106.461 113.697 105.459 113.697C104.721 113.697 103.745 113.46 102.532 112.985C101.319 112.484 99.8691 111.997 98.1816 111.522C96.4941 111.021 94.7144 110.771 92.8423 110.771C90.1265 110.771 87.4106 111.311 84.6948 112.392C81.979 113.473 79.5928 114.91 77.5361 116.703C76.1914 117.89 75.3213 118.483 74.9258 118.483C74.3193 118.483 74.0161 118.153 74.0161 117.494C74.0161 117.046 74.2534 116.413 74.728 115.596C75.2026 114.752 75.6772 114.066 76.1519 113.539C78.9468 110.454 82.0449 108.147 85.4463 106.618C88.874 105.062 92.9214 104.284 97.5884 104.284C100.779 104.284 103.811 104.746 106.685 105.668C109.585 106.565 111.036 107.672 111.036 108.991ZM118.392 123.625L127.687 114.449C128.478 113.684 129.044 113.302 129.387 113.302C129.783 113.302 130.046 113.526 130.178 113.974C130.31 114.422 130.376 115.332 130.376 116.703C130.376 119.129 129.862 120.856 128.833 121.884L126.896 123.822C126.025 124.692 125.195 125.299 124.404 125.642C123.613 125.958 122.611 126.116 121.398 126.116C120.238 126.116 119.341 126.037 118.708 125.879C118.102 125.721 117.799 125.378 117.799 124.851C117.799 124.429 117.997 124.02 118.392 123.625ZM140.066 106.42V155.502C140.066 156.794 139.789 157.757 139.235 158.39C138.523 159.207 137.667 159.919 136.665 160.525C135.689 161.105 134.845 161.396 134.133 161.396C133.21 161.396 132.749 160.829 132.749 159.695V110.612C132.749 109.505 133.026 108.622 133.58 107.962C134.318 107.092 135.162 106.341 136.111 105.708C137.086 105.049 137.943 104.719 138.682 104.719C139.604 104.719 140.066 105.286 140.066 106.42ZM156.598 117.573V125.009C156.598 125.879 156.783 126.446 157.152 126.709C157.547 126.973 158.048 127.105 158.655 127.105C159.103 127.105 159.762 127.092 160.632 127.065C161.529 127.039 162.109 127.026 162.373 127.026C165.088 127.026 167.527 127.355 169.689 128.015C171.878 128.647 173.816 129.649 175.503 131.021C177.191 132.365 178.483 134.185 179.379 136.479C180.302 138.772 180.764 141.462 180.764 144.547C180.764 146.762 180.355 148.897 179.538 150.954C178.747 152.984 177.745 154.672 176.532 156.017C175.345 157.335 174.093 158.39 172.774 159.181C171.482 159.972 170.309 160.367 169.254 160.367C168.991 160.367 168.767 160.301 168.582 160.169C168.424 160.011 168.345 159.827 168.345 159.616C168.345 159.431 168.411 159.22 168.542 158.983C168.701 158.746 168.925 158.403 169.215 157.955C169.531 157.506 169.808 157.058 170.045 156.61C171.891 153.077 172.814 149.517 172.814 145.931C172.814 141.607 171.68 138.351 169.413 136.162C167.145 133.947 163.559 132.84 158.655 132.84C157.758 132.84 156.545 132.958 155.016 133.196C153.513 133.407 152.564 133.512 152.168 133.512C150.824 133.512 150.151 132.774 150.151 131.297V117.573C150.151 116.018 151.219 115.24 153.355 115.24C154.462 115.24 155.28 115.398 155.807 115.714C156.334 116.004 156.598 116.624 156.598 117.573ZM157.903 162.226C154.792 162.226 151.984 161.145 149.479 158.983C148.609 158.139 148.174 157.322 148.174 156.531C148.174 156.003 148.503 155.384 149.163 154.672C150.824 153.011 152.313 152.18 153.632 152.18C154.502 152.18 155.464 152.642 156.519 153.564C158.497 155.173 160.395 155.977 162.214 155.977C163.164 155.977 164.073 155.779 164.943 155.384C165.84 154.962 166.38 154.751 166.565 154.751C167.224 154.751 167.554 155.133 167.554 155.898C167.554 156.214 167.475 156.61 167.316 157.084C167.158 157.559 166.842 158.113 166.367 158.746C165.919 159.352 165.352 159.906 164.667 160.407C164.007 160.908 163.084 161.33 161.898 161.672C160.711 162.042 159.38 162.226 157.903 162.226ZM172.181 112.788H151.852C151.246 112.788 150.811 112.708 150.547 112.55C150.283 112.392 150.151 112.102 150.151 111.68C150.151 111.153 150.455 110.283 151.061 109.07C151.667 107.857 152.3 106.947 152.959 106.341C153.566 105.787 154.542 105.51 155.886 105.51H176.374C177.507 105.51 178.074 105.972 178.074 106.895C178.074 107.633 177.745 108.49 177.085 109.465C176.453 110.415 175.701 111.258 174.831 111.997C174.172 112.524 173.289 112.788 172.181 112.788Z" fill="black"/>
</svg>
