<svg width="247" height="252" viewBox="0 0 247 252" fill="none" xmlns="http://www.w3.org/2000/svg">
<path d="M94.2196 29.8731C110.295 13.4724 136.705 13.4724 152.78 29.8731L218.87 97.3006C234.496 113.243 234.496 138.757 218.87 154.699L152.78 222.127C136.705 238.528 110.295 238.528 94.2196 222.127L28.13 154.699C12.5039 138.757 12.5039 113.243 28.13 97.3006L94.2196 29.8731Z" fill="#57C282"/>
<path d="M75.2305 119.841C75.2305 120.085 75.1084 120.891 74.8643 122.258C74.6201 123.601 74.376 125.419 74.1318 127.714C73.8877 129.985 73.7656 132.353 73.7656 134.819C73.7656 136.943 73.8999 138.896 74.1685 140.678C74.4614 142.436 74.9375 144.096 75.5967 145.659C76.2559 147.221 77.0859 148.552 78.0869 149.65C79.0879 150.725 80.3452 151.579 81.8589 152.214C83.397 152.824 85.1426 153.129 87.0957 153.129C88.4141 153.129 89.5981 152.983 90.6479 152.69C91.7222 152.373 92.5767 152.055 93.2114 151.738C93.8462 151.42 94.2856 151.262 94.5298 151.262C95.1157 151.262 95.4087 151.579 95.4087 152.214C95.4087 152.482 95.2988 152.873 95.0791 153.386C94.8594 153.874 94.4565 154.46 93.8706 155.144C93.3091 155.803 92.6255 156.425 91.8198 157.011C91.0386 157.597 89.9888 158.098 88.6704 158.513C87.3765 158.928 85.9482 159.135 84.3857 159.135C72.2275 159.135 66.1484 151.286 66.1484 135.588C66.1484 129.216 66.7588 124.931 67.9795 122.734C68.6143 121.611 69.5664 120.622 70.8359 119.768C72.1055 118.913 73.1431 118.486 73.9487 118.486C74.8032 118.486 75.2305 118.938 75.2305 119.841ZM97.2031 137.602H83.1772C82.1274 137.602 81.6025 137.224 81.6025 136.467C81.6025 136.125 81.8467 135.515 82.335 134.636C82.8232 133.732 83.4092 132.976 84.0928 132.365C84.6543 131.853 85.5576 131.596 86.8027 131.596H102.843C103.746 131.596 104.356 131.743 104.674 132.036C105.016 132.304 105.26 132.829 105.406 133.61C105.602 134.587 105.699 136.04 105.699 137.968C105.699 142.143 105.064 146 103.795 149.541C102.94 151.86 101.793 153.703 100.353 155.07C98.9121 156.413 97.6426 157.084 96.5439 157.084C96.0801 157.084 95.8481 156.889 95.8481 156.499C95.8481 156.303 95.8848 156.132 95.958 155.986C96.0312 155.839 96.1777 155.62 96.3975 155.327C96.6416 155.034 96.8613 154.729 97.0566 154.411C98.6191 151.799 99.4004 147.941 99.4004 142.839C99.4004 142.082 99.3882 141.496 99.3638 141.081C99.3638 140.642 99.3149 140.178 99.2173 139.689C99.144 139.177 99.0342 138.786 98.8877 138.518C98.7412 138.249 98.5215 138.029 98.2285 137.858C97.96 137.688 97.6182 137.602 97.2031 137.602ZM102.074 109.843C102.074 110.795 101.439 111.76 100.169 112.736C98.9243 113.713 97.8379 114.201 96.9102 114.201C96.2266 114.201 95.3232 113.981 94.2002 113.542C93.0771 113.078 91.7344 112.626 90.1719 112.187C88.6094 111.723 86.9614 111.491 85.228 111.491C82.7134 111.491 80.1987 111.992 77.6841 112.993C75.1694 113.994 72.96 115.324 71.0557 116.984C69.8105 118.083 69.0049 118.632 68.6387 118.632C68.0771 118.632 67.7964 118.327 67.7964 117.717C67.7964 117.302 68.0161 116.716 68.4556 115.959C68.895 115.178 69.3345 114.543 69.7739 114.055C72.3618 111.198 75.2305 109.062 78.3799 107.646C81.5537 106.206 85.3013 105.485 89.6226 105.485C92.5767 105.485 95.3843 105.913 98.0454 106.767C100.731 107.597 102.074 108.623 102.074 109.843ZM120.311 147.05C119.969 148.051 119.542 148.698 119.029 148.991C118.517 149.284 117.699 149.431 116.576 149.431C114.549 149.431 113.536 148.967 113.536 148.039C113.536 147.795 113.805 147.075 114.342 145.878C114.903 144.682 115.892 143.132 117.308 141.228C118.749 139.323 120.177 137.663 121.593 136.247C123.009 134.831 124.461 133.366 125.951 131.853C127.44 130.339 128.746 128.959 129.869 127.714C130.992 126.469 131.908 125.126 132.616 123.686C133.348 122.221 133.714 120.781 133.714 119.365C133.714 116.533 133.055 114.519 131.737 113.322C130.418 112.102 128.172 111.491 124.999 111.491C123.607 111.491 122.032 111.809 120.274 112.443C118.517 113.078 116.783 114.189 115.074 115.776C113.976 116.752 113.268 117.241 112.95 117.241C112.486 117.241 112.254 116.997 112.254 116.508C112.254 115.898 112.535 115.031 113.097 113.908C114.293 111.882 115.746 110.209 117.455 108.891C119.188 107.573 120.86 106.682 122.472 106.218C124.083 105.729 125.719 105.485 127.379 105.485C131.529 105.485 134.825 106.645 137.267 108.964C139.708 111.259 140.929 114.482 140.929 118.632C140.929 120.17 140.599 121.721 139.94 123.283C139.305 124.846 138.451 126.311 137.376 127.678C136.302 129.045 135.106 130.4 133.788 131.743C132.494 133.085 131.139 134.416 129.723 135.734C128.331 137.028 127.013 138.286 125.768 139.506C124.547 140.703 123.436 141.96 122.435 143.278C121.434 144.597 120.726 145.854 120.311 147.05ZM114.671 151.262H140.892C141.942 151.262 142.467 151.628 142.467 152.36C142.467 152.727 142.186 153.483 141.625 154.631C141.087 155.778 140.489 156.657 139.83 157.268C139.293 157.756 138.39 158 137.12 158H113.573C112.547 158 112.035 157.329 112.035 155.986C112.035 154.448 112.206 153.276 112.547 152.47C112.914 151.665 113.622 151.262 114.671 151.262ZM168.541 105.485C171.153 105.485 173.412 105.827 175.316 106.511C177.245 107.17 178.88 108.098 180.223 109.294C181.59 110.466 182.701 111.857 183.556 113.469C184.41 115.08 185.082 116.826 185.57 118.706C186.058 120.561 186.388 122.514 186.559 124.565C186.754 126.616 186.852 128.667 186.852 130.717C186.852 132.817 186.766 135.039 186.595 137.382C186.449 139.702 186.119 141.972 185.606 144.194C185.118 146.416 184.398 148.503 183.446 150.456C182.494 152.409 181.236 154.082 179.674 155.473C178.185 156.767 176.927 157.414 175.902 157.414C175.414 157.414 175.169 157.133 175.169 156.572C175.169 156.328 175.34 155.998 175.682 155.583C176.024 155.168 176.378 154.57 176.744 153.789C178.575 149.809 179.491 143.291 179.491 134.233C179.491 130.937 179.295 127.91 178.905 125.151C178.539 122.392 177.843 120.012 176.817 118.01C175.816 116.008 174.413 114.445 172.606 113.322C170.799 112.175 168.468 111.564 165.611 111.491C163.707 111.491 161.827 111.894 159.972 112.7C158.141 113.505 156.346 114.726 154.588 116.362C154.027 116.899 153.551 117.302 153.16 117.57C152.77 117.814 152.428 117.937 152.135 117.937C151.622 117.937 151.366 117.692 151.366 117.204C151.366 116.423 151.891 115.324 152.94 113.908C157.115 108.293 162.315 105.485 168.541 105.485ZM159.02 119.292C159.02 119.365 158.958 119.682 158.836 120.244C158.714 120.781 158.568 121.538 158.397 122.514C158.226 123.466 158.055 124.577 157.884 125.847C157.713 127.092 157.567 128.618 157.445 130.424C157.323 132.231 157.262 134.074 157.262 135.954C157.262 138.249 157.42 140.361 157.738 142.29C158.08 144.218 158.617 146.037 159.349 147.746C160.106 149.431 161.168 150.761 162.535 151.738C163.927 152.69 165.587 153.166 167.516 153.166C168.785 153.166 169.859 153.007 170.738 152.69C171.617 152.373 172.276 152.067 172.716 151.774C173.18 151.457 173.534 151.298 173.778 151.298C174.315 151.298 174.583 151.604 174.583 152.214C174.583 153.605 173.692 155.107 171.91 156.718C170.128 158.33 167.87 159.135 165.135 159.135C155.003 159.135 149.938 151.237 149.938 135.441C149.938 132.634 150.108 129.985 150.45 127.495C150.792 125.004 151.231 123.259 151.769 122.258C152.452 120.988 153.429 119.951 154.698 119.145C155.968 118.339 157.03 117.937 157.884 117.937C158.641 117.937 159.02 118.388 159.02 119.292Z" fill="black"/>
</svg>
