<svg width="247" height="252" viewBox="0 0 247 252" fill="none" xmlns="http://www.w3.org/2000/svg">
<path d="M94.2196 29.8731C110.295 13.4724 136.705 13.4724 152.78 29.8731L218.87 97.3006C234.496 113.243 234.496 138.757 218.87 154.699L152.78 222.127C136.705 238.528 110.295 238.528 94.2196 222.127L28.13 154.699C12.5039 138.757 12.5039 113.243 28.13 97.3006L94.2196 29.8731Z" fill="#57C282"/>
<path d="M76.5273 130.732C76.7585 131.703 76.874 132.94 76.874 134.442V150.389C76.874 151.499 76.6429 152.354 76.1807 152.955C75.626 153.602 74.9211 154.168 74.0659 154.653C73.2108 155.116 72.6099 155.347 72.2632 155.347C71.4543 155.347 71.0498 154.85 71.0498 153.856V121.025C71.0498 120.748 71.1191 120.528 71.2578 120.367C71.3965 120.182 71.5698 120.089 71.7778 120.089C72.1245 120.089 72.4712 120.436 72.8179 121.129C73.1877 121.823 73.8348 123.302 74.7593 125.567C75.73 127.994 76.3193 129.715 76.5273 130.732ZM85.0557 146.506L71.2578 110.625C71.0729 110.186 70.9805 109.758 70.9805 109.342C70.9805 108.788 71.2 108.268 71.6392 107.782C72.1707 107.135 72.8757 106.627 73.7539 106.257C74.6322 105.864 75.314 105.667 75.7993 105.667C76.3078 105.667 76.7007 105.783 76.978 106.014C77.2785 106.245 77.5558 106.673 77.8101 107.297L89.5278 138.81C89.9438 139.943 90.1519 140.867 90.1519 141.583C90.1519 142.161 90.0132 142.855 89.7358 143.664C89.1812 145.073 88.638 146.183 88.1064 146.992C87.6211 147.754 87.1011 148.136 86.5464 148.136C86.269 148.136 86.0148 148.02 85.7837 147.789C85.5526 147.558 85.3099 147.13 85.0557 146.506ZM103.568 130.282L96.3228 149.106C95.5601 151.002 94.3582 152.515 92.7173 153.648C91.1226 154.78 89.8861 155.347 89.0078 155.347C88.3145 155.347 87.9678 155.023 87.9678 154.376C87.9678 154.099 88.0833 153.694 88.3145 153.163L102.494 115.583C102.91 114.727 103.245 114.242 103.499 114.126C103.638 114.057 103.776 114.022 103.915 114.022C104.447 114.022 104.782 114.473 104.92 115.375C105.059 116.183 105.128 118.056 105.128 120.991C105.128 122.817 105.024 124.423 104.816 125.81C104.632 127.173 104.215 128.664 103.568 130.282ZM114.177 107.158V150.181C114.177 151.314 113.946 152.157 113.483 152.712C112.906 153.405 112.074 154.018 110.987 154.549C109.924 155.081 109.057 155.347 108.387 155.347C107.601 155.347 107.208 154.85 107.208 153.856V110.833C107.208 109.862 107.44 109.088 107.902 108.51C108.503 107.794 109.335 107.147 110.398 106.569C111.461 105.968 112.316 105.667 112.963 105.667C113.772 105.667 114.177 106.164 114.177 107.158ZM129.361 144.322L127.42 150.181C126.935 151.66 126.091 152.897 124.889 153.891C123.687 154.861 122.335 155.347 120.833 155.347C120.463 155.347 120.151 155.243 119.897 155.035C119.666 154.85 119.55 154.572 119.55 154.203C119.55 154.064 119.597 153.856 119.689 153.579L123.017 144.045C123.179 143.56 123.352 143.19 123.537 142.936C123.722 142.658 123.976 142.462 124.3 142.346C124.646 142.231 124.947 142.161 125.201 142.138C125.479 142.115 125.941 142.104 126.588 142.104C127.119 142.104 127.512 142.115 127.767 142.138C128.021 142.138 128.31 142.173 128.633 142.242C128.98 142.312 129.223 142.439 129.361 142.624C129.5 142.785 129.569 143.016 129.569 143.317C129.569 143.525 129.5 143.86 129.361 144.322ZM140.767 106.777L155.536 149.73C155.697 150.47 155.778 150.886 155.778 150.979C155.778 151.972 155.201 152.955 154.045 153.925C152.889 154.873 151.872 155.347 150.994 155.347C150.231 155.347 149.642 154.757 149.226 153.579L134.804 111.492C134.573 110.452 134.458 109.897 134.458 109.828C134.458 108.811 135.093 107.805 136.364 106.812C137.659 105.795 138.652 105.286 139.346 105.286C139.739 105.286 140.016 105.39 140.178 105.598C140.363 105.783 140.559 106.176 140.767 106.777ZM140.143 140.023H126.068C125.19 140.023 124.75 139.642 124.75 138.879C124.75 138.671 124.797 138.44 124.889 138.186L131.996 116.935C132.32 116.033 132.689 115.583 133.105 115.583C133.475 115.583 133.799 115.814 134.076 116.276C134.354 116.715 134.654 117.431 134.978 118.425C135.578 120.297 135.879 121.696 135.879 122.62C135.879 123.267 135.763 123.949 135.532 124.666L132.828 132.917C132.782 133.032 132.759 133.194 132.759 133.402C132.759 134.026 133.117 134.338 133.833 134.338H137.439C138.618 134.338 139.415 134.396 139.831 134.511C140.247 134.627 140.582 134.95 140.836 135.482C141.068 135.944 141.252 136.545 141.391 137.285C141.553 138.001 141.634 138.533 141.634 138.879C141.634 139.642 141.137 140.023 140.143 140.023ZM167.392 141.271V150.181C167.392 151.314 167.149 152.157 166.664 152.712C166.086 153.405 165.266 154.018 164.203 154.549C163.163 155.081 162.307 155.347 161.637 155.347C160.828 155.347 160.424 154.85 160.424 153.856V141.271C160.424 140.439 160.713 139.873 161.291 139.573C161.891 139.272 162.781 139.122 163.96 139.122C165.231 139.122 166.121 139.272 166.629 139.573C167.138 139.85 167.392 140.416 167.392 141.271ZM160.424 134.511V116.033C160.424 115.201 160.701 114.658 161.256 114.404C161.834 114.126 162.712 113.988 163.891 113.988C165.185 113.988 166.086 114.126 166.595 114.404C167.126 114.658 167.392 115.201 167.392 116.033V130.49C167.392 131.484 167.831 131.98 168.709 131.98H174.499C175.493 131.98 175.99 132.269 175.99 132.847C175.99 133.402 175.481 134.049 174.464 134.789C173.471 135.505 172.188 136.106 170.616 136.591C169.646 136.892 167.242 137.042 163.405 137.042C162.227 137.042 161.429 136.834 161.013 136.418C160.62 136.002 160.424 135.366 160.424 134.511ZM182.715 123.556C182.715 115.86 178.151 112.012 169.021 112.012H161.776C161.475 112.012 161.233 112 161.048 111.977C160.886 111.954 160.736 111.885 160.597 111.769C160.482 111.63 160.424 111.445 160.424 111.214C160.424 110.244 161.083 109.204 162.4 108.094C163.74 106.985 165.069 106.407 166.387 106.361L170.062 106.326L174.499 106.361C175.747 106.384 177.007 106.534 178.278 106.812C179.572 107.066 180.947 107.563 182.403 108.302C183.859 109.042 185.142 109.978 186.251 111.11C187.361 112.243 188.274 113.768 188.99 115.687C189.73 117.605 190.1 119.777 190.1 122.204C190.1 123.152 189.972 124.192 189.718 125.324C189.487 126.457 189.036 127.716 188.366 129.103C187.719 130.49 186.899 131.761 185.905 132.917C184.934 134.049 183.617 135.066 181.953 135.967C180.289 136.846 178.417 137.412 176.336 137.666H176.128C175.504 137.666 175.192 137.4 175.192 136.869C175.192 136.545 175.458 136.222 175.99 135.898C180.473 133.125 182.715 129.011 182.715 123.556Z" fill="black"/>
</svg>
