<svg width="247" height="252" viewBox="0 0 247 252" fill="none" xmlns="http://www.w3.org/2000/svg">
<path d="M94.2196 29.8731C110.295 13.4724 136.705 13.4724 152.78 29.8731L218.87 97.3006C234.496 113.243 234.496 138.757 218.87 154.699L152.78 222.127C136.705 238.528 110.295 238.528 94.2196 222.127L28.13 154.699C12.5039 138.757 12.5039 113.243 28.13 97.3006L94.2196 29.8731Z" fill="#57C282"/>
<path d="M93.6875 112.626H63.6948C62.645 112.626 62.1201 112.248 62.1201 111.491C62.1201 111.149 62.3643 110.527 62.8525 109.624C63.3408 108.72 63.9146 107.976 64.5737 107.39C65.1353 106.877 66.0386 106.621 67.2837 106.621H97.2764C98.3262 106.621 98.8511 106.999 98.8511 107.756C98.8511 108.098 98.6069 108.72 98.1187 109.624C97.6304 110.527 97.0566 111.271 96.3975 111.857C95.8359 112.37 94.9326 112.626 93.6875 112.626ZM76.146 156.792L76.1094 117.021C76.1094 116.142 76.4023 115.568 76.9883 115.3C77.5986 115.007 78.5264 114.86 79.7715 114.86C81.1387 114.86 82.0908 115.007 82.6279 115.3C83.1895 115.568 83.4702 116.142 83.4702 117.021V152.91C83.4702 153.959 83.2261 154.777 82.7378 155.363C82.103 156.12 81.2241 156.816 80.1011 157.451C79.0024 158.061 78.1113 158.366 77.4277 158.366C76.5732 158.366 76.146 157.841 76.146 156.792ZM111.229 106.621H130.968C132.018 106.621 132.542 106.999 132.542 107.756C132.542 108.098 132.298 108.72 131.81 109.624C131.322 110.502 130.736 111.247 130.052 111.857C129.491 112.37 128.6 112.626 127.379 112.626H106.358C105.992 112.626 105.724 112.614 105.553 112.59C105.382 112.541 105.223 112.431 105.077 112.26C104.955 112.089 104.894 111.845 104.894 111.528C104.894 110.625 105.602 109.587 107.018 108.415C108.458 107.219 109.862 106.621 111.229 106.621ZM104.93 156.425V138.371C104.93 137.492 105.223 136.918 105.809 136.65C106.419 136.357 107.359 136.21 108.629 136.21C109.996 136.21 110.948 136.357 111.485 136.65C112.022 136.918 112.291 137.492 112.291 138.371V150.493C112.291 151.494 112.792 151.994 113.792 151.994H131.7C132.75 151.994 133.275 152.373 133.275 153.129C133.275 153.471 133.031 154.106 132.542 155.034C132.054 155.937 131.48 156.682 130.821 157.268C130.26 157.756 129.356 158 128.111 158H106.212C105.357 158 104.93 157.475 104.93 156.425ZM104.93 132.512V117.021C104.93 116.142 105.223 115.556 105.809 115.263C106.419 114.97 107.359 114.824 108.629 114.824C109.996 114.824 110.948 114.97 111.485 115.263C112.022 115.532 112.291 116.118 112.291 117.021V126.506C112.291 127.507 112.792 128.007 113.792 128.007H128.697C129.747 128.007 130.272 128.386 130.272 129.143C130.272 129.484 130.028 130.107 129.54 131.01C129.051 131.889 128.478 132.634 127.818 133.244C127.257 133.757 126.354 134.013 125.108 134.013H106.432C105.431 134.013 104.93 133.513 104.93 132.512ZM146.642 132.365C146.886 133.391 147.008 134.697 147.008 136.284V153.129C147.008 154.301 146.764 155.205 146.275 155.839C145.689 156.523 144.945 157.121 144.042 157.634C143.138 158.122 142.503 158.366 142.137 158.366C141.283 158.366 140.855 157.841 140.855 156.792V122.111C140.855 121.818 140.929 121.586 141.075 121.416C141.222 121.22 141.405 121.123 141.625 121.123C141.991 121.123 142.357 121.489 142.723 122.221C143.114 122.954 143.797 124.516 144.774 126.909C145.799 129.472 146.422 131.291 146.642 132.365ZM155.65 149.028L141.075 111.125C140.88 110.661 140.782 110.209 140.782 109.77C140.782 109.184 141.014 108.635 141.478 108.122C142.04 107.438 142.784 106.901 143.712 106.511C144.64 106.096 145.36 105.888 145.873 105.888C146.41 105.888 146.825 106.01 147.118 106.254C147.435 106.499 147.728 106.95 147.997 107.609L160.375 140.898C160.814 142.094 161.034 143.071 161.034 143.828C161.034 144.438 160.887 145.17 160.594 146.025C160.008 147.514 159.435 148.686 158.873 149.541C158.36 150.346 157.811 150.749 157.225 150.749C156.932 150.749 156.664 150.627 156.419 150.383C156.175 150.139 155.919 149.687 155.65 149.028ZM175.206 131.889L167.552 151.774C166.747 153.776 165.477 155.375 163.744 156.572C162.059 157.768 160.753 158.366 159.825 158.366C159.093 158.366 158.727 158.024 158.727 157.341C158.727 157.048 158.849 156.621 159.093 156.059L174.071 116.362C174.51 115.458 174.864 114.946 175.133 114.824C175.279 114.75 175.426 114.714 175.572 114.714C176.134 114.714 176.488 115.19 176.634 116.142C176.781 116.997 176.854 118.974 176.854 122.075C176.854 124.003 176.744 125.7 176.524 127.165C176.329 128.605 175.89 130.18 175.206 131.889ZM186.412 107.463V152.91C186.412 154.106 186.168 154.997 185.68 155.583C185.069 156.315 184.19 156.962 183.043 157.524C181.92 158.085 181.004 158.366 180.296 158.366C179.466 158.366 179.051 157.841 179.051 156.792V111.345C179.051 110.319 179.295 109.501 179.784 108.891C180.418 108.134 181.297 107.451 182.42 106.84C183.543 106.206 184.447 105.888 185.13 105.888C185.985 105.888 186.412 106.413 186.412 107.463Z" fill="black"/>
</svg>
