<svg width="247" height="252" viewBox="0 0 247 252" fill="none" xmlns="http://www.w3.org/2000/svg">
<path d="M94.2196 29.8731C110.295 13.4724 136.705 13.4724 152.78 29.8731L218.87 97.3006C234.496 113.243 234.496 138.757 218.87 154.699L152.78 222.127C136.705 238.528 110.295 238.528 94.2196 222.127L28.13 154.699C12.5039 138.757 12.5039 113.243 28.13 97.3006L94.2196 29.8731Z" fill="#57C282"/>
<path d="M87.0825 119.876C87.0825 120.107 86.967 120.87 86.7358 122.164C86.5047 123.435 86.2736 125.157 86.0425 127.33C85.8114 129.479 85.6958 131.721 85.6958 134.055C85.6958 136.066 85.8229 137.915 86.0771 139.602C86.3545 141.266 86.8052 142.838 87.4292 144.317C88.0532 145.796 88.839 147.056 89.7866 148.096C90.7342 149.113 91.9245 149.922 93.3574 150.522C94.8135 151.1 96.466 151.389 98.3149 151.389C99.563 151.389 100.684 151.25 101.678 150.973C102.695 150.673 103.504 150.372 104.104 150.072C104.705 149.771 105.121 149.621 105.353 149.621C105.907 149.621 106.185 149.922 106.185 150.522C106.185 150.777 106.081 151.146 105.873 151.632C105.665 152.094 105.283 152.649 104.729 153.296C104.197 153.92 103.55 154.509 102.787 155.064C102.048 155.619 101.054 156.092 99.8057 156.485C98.5807 156.878 97.2287 157.075 95.7495 157.075C84.2397 157.075 78.4849 149.644 78.4849 134.783C78.4849 128.751 79.0627 124.695 80.2183 122.615C80.8192 121.552 81.7205 120.616 82.9224 119.807C84.1242 118.998 85.1064 118.593 85.8691 118.593C86.6781 118.593 87.0825 119.021 87.0825 119.876ZM107.883 136.69H94.6055C93.6117 136.69 93.1147 136.332 93.1147 135.615C93.1147 135.292 93.3459 134.714 93.8081 133.882C94.2703 133.027 94.825 132.31 95.4722 131.732C96.0037 131.247 96.8589 131.004 98.0376 131.004H113.222C114.077 131.004 114.655 131.143 114.956 131.42C115.279 131.675 115.51 132.172 115.649 132.911C115.834 133.836 115.926 135.211 115.926 137.037C115.926 140.989 115.325 144.64 114.124 147.992C113.315 150.187 112.228 151.932 110.865 153.227C109.501 154.498 108.299 155.133 107.259 155.133C106.82 155.133 106.601 154.948 106.601 154.579C106.601 154.394 106.635 154.232 106.705 154.093C106.774 153.955 106.913 153.747 107.121 153.469C107.352 153.192 107.56 152.903 107.745 152.603C109.224 150.13 109.963 146.478 109.963 141.647C109.963 140.931 109.952 140.376 109.929 139.983C109.929 139.567 109.882 139.128 109.79 138.666C109.721 138.181 109.617 137.811 109.478 137.557C109.339 137.302 109.131 137.094 108.854 136.933C108.6 136.771 108.276 136.69 107.883 136.69ZM112.494 110.412C112.494 111.313 111.893 112.226 110.691 113.15C109.513 114.075 108.484 114.537 107.606 114.537C106.959 114.537 106.104 114.329 105.041 113.913C103.977 113.474 102.706 113.046 101.227 112.63C99.7479 112.191 98.1878 111.972 96.5469 111.972C94.1663 111.972 91.7858 112.445 89.4053 113.393C87.0247 114.341 84.9331 115.6 83.1304 117.172C81.9517 118.212 81.189 118.732 80.8423 118.732C80.3107 118.732 80.0449 118.443 80.0449 117.865C80.0449 117.472 80.2529 116.918 80.6689 116.201C81.085 115.462 81.501 114.861 81.917 114.398C84.3669 111.694 87.0825 109.672 90.064 108.332C93.0685 106.968 96.6162 106.286 100.707 106.286C103.504 106.286 106.161 106.691 108.681 107.5C111.223 108.285 112.494 109.256 112.494 110.412ZM118.942 123.239L127.089 115.196C127.783 114.526 128.28 114.19 128.58 114.19C128.927 114.19 129.158 114.387 129.273 114.78C129.389 115.173 129.447 115.97 129.447 117.172C129.447 119.298 128.996 120.812 128.095 121.713L126.396 123.412C125.633 124.175 124.905 124.706 124.212 125.007C123.519 125.284 122.64 125.423 121.577 125.423C120.56 125.423 119.774 125.354 119.22 125.215C118.688 125.076 118.422 124.776 118.422 124.313C118.422 123.944 118.596 123.585 118.942 123.239ZM137.94 108.158V151.181C137.94 152.314 137.698 153.157 137.212 153.712C136.588 154.428 135.837 155.052 134.959 155.584C134.104 156.092 133.364 156.347 132.74 156.347C131.931 156.347 131.527 155.85 131.527 154.856V111.833C131.527 110.862 131.77 110.088 132.255 109.51C132.902 108.748 133.642 108.089 134.474 107.534C135.329 106.956 136.08 106.667 136.727 106.667C137.536 106.667 137.94 107.164 137.94 108.158ZM163.733 129.999C163.733 130.507 163.988 131.201 164.496 132.079L175.521 150.8C175.937 151.516 176.145 152.14 176.145 152.672C176.145 153.643 175.578 154.498 174.446 155.237C173.336 155.977 172.343 156.347 171.464 156.347C170.54 156.347 169.743 155.78 169.072 154.648L156.765 133.917C156.303 133.154 156.072 132.46 156.072 131.836C156.072 131.328 156.257 130.739 156.626 130.068C163.907 117.172 167.905 110.319 168.622 109.51C169.246 108.817 170.182 108.17 171.43 107.569C172.701 106.968 173.695 106.667 174.411 106.667C175.151 106.667 175.521 107.026 175.521 107.742C175.521 108.181 175.289 108.817 174.827 109.649L164.669 127.538C164.045 128.647 163.733 129.467 163.733 129.999ZM156.488 142.063C152.721 148.928 150.479 152.718 149.762 153.435C149.138 154.128 148.214 154.787 146.989 155.411C145.787 156.035 144.839 156.347 144.146 156.347C143.383 156.347 142.979 156.023 142.933 155.376C142.933 154.891 143.164 154.22 143.626 153.365L152.813 136.967C153.345 136.043 153.922 135.581 154.546 135.581C155.147 135.581 155.737 136.043 156.314 136.967C156.892 137.892 157.181 138.805 157.181 139.706C157.181 140.492 156.95 141.278 156.488 142.063ZM152.154 125.492L144.077 111.972C143.73 111.463 143.557 110.989 143.557 110.55C143.557 109.556 144.204 108.667 145.498 107.881C146.792 107.072 147.879 106.667 148.757 106.667C149.52 106.667 150.178 107.141 150.733 108.089L157.562 120.084C157.979 120.824 158.187 121.471 158.187 122.025C158.187 122.811 157.771 123.886 156.938 125.25C156.014 126.752 155.159 127.503 154.373 127.503C153.911 127.503 153.529 127.341 153.229 127.018C152.929 126.694 152.57 126.186 152.154 125.492Z" fill="black"/>
</svg>
