<svg width="247" height="252" viewBox="0 0 247 252" fill="none" xmlns="http://www.w3.org/2000/svg">
<path d="M94.2196 29.8731C110.295 13.4724 136.705 13.4724 152.78 29.8731L218.87 97.3006C234.496 113.243 234.496 138.757 218.87 154.699L152.78 222.127C136.705 238.528 110.295 238.528 94.2196 222.127L28.13 154.699C12.5039 138.757 12.5039 113.243 28.13 97.3006L94.2196 29.8731Z" fill="#57C282"/>
<path d="M95.8481 145.338V155.502C95.8481 156.794 95.5713 157.757 95.0176 158.39C94.3584 159.181 93.4224 159.879 92.2095 160.486C91.0229 161.092 90.0474 161.396 89.2827 161.396C88.3599 161.396 87.8984 160.829 87.8984 159.695V145.338C87.8984 144.389 88.228 143.743 88.8872 143.4C89.5728 143.057 90.5879 142.886 91.9326 142.886C93.3828 142.886 94.3979 143.057 94.978 143.4C95.5581 143.716 95.8481 144.362 95.8481 145.338ZM87.8984 137.625V116.545C87.8984 115.596 88.2148 114.976 88.8477 114.686C89.5068 114.37 90.5088 114.211 91.8535 114.211C93.3301 114.211 94.3584 114.37 94.9385 114.686C95.5449 114.976 95.8481 115.596 95.8481 116.545V133.038C95.8481 134.171 96.3491 134.738 97.3511 134.738H103.956C105.09 134.738 105.657 135.068 105.657 135.727C105.657 136.36 105.077 137.098 103.917 137.942C102.783 138.759 101.319 139.445 99.5264 139.999C98.4189 140.341 95.6768 140.513 91.2998 140.513C89.9551 140.513 89.0454 140.275 88.5708 139.801C88.1226 139.326 87.8984 138.601 87.8984 137.625ZM113.33 125.127C113.33 116.347 108.122 111.957 97.707 111.957H89.4409C89.0981 111.957 88.8213 111.944 88.6104 111.917C88.4258 111.891 88.2544 111.812 88.0962 111.68C87.9644 111.522 87.8984 111.311 87.8984 111.047C87.8984 109.94 88.6499 108.753 90.1528 107.488C91.6821 106.222 93.1982 105.563 94.7012 105.51L98.8936 105.471L103.956 105.51C105.38 105.537 106.817 105.708 108.267 106.024C109.744 106.314 111.312 106.881 112.974 107.725C114.635 108.569 116.098 109.637 117.364 110.929C118.629 112.221 119.671 113.961 120.488 116.149C121.332 118.338 121.754 120.816 121.754 123.585C121.754 124.666 121.609 125.853 121.319 127.145C121.055 128.437 120.541 129.874 119.776 131.456C119.038 133.038 118.102 134.488 116.968 135.806C115.861 137.098 114.358 138.258 112.459 139.287C110.561 140.289 108.425 140.935 106.052 141.225H105.815C105.103 141.225 104.747 140.921 104.747 140.315C104.747 139.946 105.05 139.577 105.657 139.208C110.772 136.043 113.33 131.35 113.33 125.127ZM139.631 111.917H131.444C131.101 111.917 130.824 111.904 130.613 111.878C130.429 111.852 130.257 111.772 130.099 111.641C129.967 111.482 129.901 111.271 129.901 111.008C129.901 109.9 130.653 108.727 132.156 107.488C133.659 106.249 135.175 105.589 136.704 105.51C138.418 105.431 140.633 105.392 143.349 105.392C144.456 105.392 145.458 105.418 146.354 105.471C147.277 105.523 148.372 105.655 149.637 105.866C150.929 106.077 152.063 106.367 153.039 106.736C154.014 107.105 155.016 107.646 156.044 108.358C157.099 109.07 157.969 109.914 158.655 110.889C159.34 111.838 159.907 113.051 160.355 114.528C160.804 115.978 161.028 117.613 161.028 119.432C161.028 123.334 159.433 126.551 156.242 129.083C155.794 129.425 155.57 129.729 155.57 129.992C155.57 130.335 155.768 130.572 156.163 130.704C159.696 131.864 162.333 133.591 164.073 135.885C165.813 138.179 166.684 141.291 166.684 145.219C166.684 146.669 166.473 148.12 166.051 149.57C165.655 150.994 164.996 152.404 164.073 153.802C163.177 155.173 162.069 156.399 160.751 157.48C159.459 158.535 157.837 159.392 155.886 160.051C153.935 160.684 151.786 161 149.439 161C148.517 161 148.055 160.75 148.055 160.249C148.055 159.906 148.266 159.629 148.688 159.418C151.958 157.968 154.37 156.109 155.926 153.841C157.481 151.574 158.259 148.752 158.259 145.377C158.259 138.654 154.963 134.765 148.372 133.71C147.95 133.631 147.739 133.407 147.739 133.038C147.739 132.695 148.055 132.299 148.688 131.851C150.085 130.823 151.219 129.491 152.089 127.856C152.959 126.195 153.395 124.363 153.395 122.359C153.395 120.566 153.131 119.023 152.604 117.731C152.103 116.413 151.443 115.398 150.626 114.686C149.835 113.948 148.793 113.368 147.501 112.946C146.236 112.498 145.01 112.221 143.823 112.115C142.637 111.983 141.239 111.917 139.631 111.917ZM129.901 159.299V116.664C129.901 115.714 130.218 115.082 130.851 114.765C131.51 114.449 132.512 114.291 133.856 114.291C135.333 114.291 136.361 114.449 136.941 114.765C137.548 115.055 137.851 115.688 137.851 116.664V125.998C137.851 127.079 138.392 127.619 139.473 127.619H146.434C147.567 127.619 148.134 127.975 148.134 128.687C148.134 129.003 147.844 129.518 147.264 130.229C146.684 130.941 145.972 131.535 145.128 132.009C144.206 132.537 142.32 133.051 139.473 133.552C138.392 133.763 137.851 134.461 137.851 135.648V152.892C137.851 153.973 138.392 154.514 139.473 154.514H147.976C149.11 154.514 149.677 154.843 149.677 155.502C149.677 156.056 149.044 156.768 147.778 157.638C146.513 158.508 144.904 159.286 142.953 159.972C141.028 160.657 139.262 161 137.653 161H131.523C130.442 161 129.901 160.433 129.901 159.299Z" fill="black"/>
</svg>
