<svg width="247" height="252" viewBox="0 0 247 252" fill="none" xmlns="http://www.w3.org/2000/svg">
<path d="M94.2196 29.8731C110.295 13.4724 136.705 13.4724 152.78 29.8731L218.87 97.3006C234.496 113.243 234.496 138.757 218.87 154.699L152.78 222.127C136.705 238.528 110.295 238.528 94.2196 222.127L28.13 154.699C12.5039 138.757 12.5039 113.243 28.13 97.3006L94.2196 29.8731Z" fill="#57C282"/>
<path d="M88.1577 119.511C88.1577 119.877 88.0234 120.683 87.7549 121.928C87.4863 123.173 87.2056 124.821 86.9126 126.872C86.644 128.923 86.5098 131.096 86.5098 133.391C86.5098 135.173 86.583 136.809 86.7295 138.298C86.876 139.763 87.1201 141.276 87.4619 142.839C87.8281 144.377 88.3408 145.732 89 146.904C89.6836 148.076 90.5137 149.138 91.4902 150.09C92.4668 151.018 93.6875 151.738 95.1523 152.25C96.6172 152.739 98.2896 152.983 100.169 152.983C101.903 152.983 103.526 152.788 105.04 152.397C106.554 152.006 107.701 151.579 108.482 151.115C109.288 150.627 110.021 150.188 110.68 149.797C111.363 149.406 111.839 149.211 112.108 149.211C112.694 149.211 112.987 149.516 112.987 150.126C112.987 150.493 112.828 151.005 112.511 151.665C112.218 152.324 111.681 153.093 110.899 153.972C110.118 154.851 109.166 155.668 108.043 156.425C106.944 157.182 105.455 157.817 103.575 158.33C101.695 158.867 99.6323 159.135 97.3862 159.135C93.8218 159.135 90.8188 158.598 88.3774 157.524C85.936 156.45 84.0195 154.838 82.6279 152.69C81.2607 150.542 80.2842 148.063 79.6982 145.256C79.1367 142.448 78.856 139.091 78.856 135.185C78.856 132.426 79.0269 129.936 79.3687 127.714C79.7104 125.493 80.1255 123.906 80.6138 122.954C81.2241 121.733 82.1763 120.671 83.4702 119.768C84.7886 118.84 85.9849 118.376 87.0591 118.376C87.7915 118.376 88.1577 118.754 88.1577 119.511ZM112.254 109.843C112.254 110.844 111.351 111.992 109.544 113.286C108.812 113.896 107.982 114.201 107.054 114.201C106.834 114.201 106.627 114.189 106.432 114.165C106.236 114.116 106.017 114.055 105.772 113.981C105.528 113.884 105.333 113.811 105.187 113.762C105.04 113.713 104.796 113.615 104.454 113.469C104.137 113.322 103.905 113.212 103.758 113.139C101.17 112.041 98.7778 111.491 96.5806 111.491C92.186 111.491 87.9136 113.322 83.7632 116.984C83.6411 117.082 83.458 117.229 83.2139 117.424C82.9697 117.619 82.7744 117.778 82.6279 117.9C82.5059 117.998 82.3472 118.12 82.1519 118.266C81.981 118.388 81.8223 118.486 81.6758 118.559C81.5537 118.608 81.4438 118.632 81.3462 118.632C80.7847 118.632 80.5039 118.327 80.5039 117.717C80.5039 116.936 81.1631 115.715 82.4814 114.055C84.7275 111.271 87.3154 109.147 90.2451 107.683C93.1992 106.218 96.7881 105.485 101.012 105.485C104.259 105.485 107.225 106.145 109.911 107.463C110.375 107.683 110.704 107.854 110.899 107.976C111.119 108.073 111.4 108.305 111.742 108.671C112.083 109.038 112.254 109.428 112.254 109.843ZM127.855 107.463V152.91C127.855 154.106 127.599 154.997 127.086 155.583C126.476 156.315 125.609 156.962 124.486 157.524C123.387 158.085 122.484 158.366 121.776 158.366C120.921 158.366 120.494 157.841 120.494 156.792V111.345C120.494 110.319 120.75 109.501 121.263 108.891C121.898 108.134 122.765 107.451 123.863 106.84C124.962 106.206 125.865 105.888 126.573 105.888C127.428 105.888 127.855 106.413 127.855 107.463ZM144.994 112.59H139.061C138.109 112.59 137.633 112.297 137.633 111.711C137.633 111.174 137.828 110.625 138.219 110.063C138.609 109.477 139.11 108.94 139.72 108.452C140.355 107.963 141.051 107.548 141.808 107.207C142.589 106.865 143.346 106.669 144.078 106.621L147.008 106.547C150.89 106.547 154.503 107.036 157.848 108.012C161.192 108.964 164.098 110.49 166.563 112.59C169.029 114.689 170.958 117.387 172.35 120.683C173.766 123.979 174.474 127.971 174.474 132.658C174.474 134.88 174.242 137.053 173.778 139.177C173.338 141.301 172.691 143.303 171.837 145.183C170.982 147.062 169.945 148.784 168.724 150.346C167.528 151.909 166.185 153.264 164.696 154.411C163.207 155.534 161.583 156.413 159.825 157.048C158.067 157.683 156.224 158 154.295 158C153.441 158 153.014 157.719 153.014 157.158C153.014 156.718 153.282 156.376 153.819 156.132C155.895 155.18 157.738 154.069 159.349 152.8C160.96 151.53 162.315 150.017 163.414 148.259C164.537 146.477 165.379 144.401 165.941 142.033C166.527 139.665 166.82 136.906 166.82 133.757C166.82 130.632 166.441 127.788 165.685 125.224C164.952 122.661 163.731 120.451 162.022 118.596C160.313 116.74 158.067 115.3 155.284 114.274C152.501 113.225 149.071 112.663 144.994 112.59ZM137.633 156.425V116.984C137.633 116.105 137.926 115.52 138.512 115.227C139.122 114.934 140.05 114.787 141.295 114.787C142.662 114.787 143.614 114.934 144.151 115.227C144.713 115.495 144.994 116.081 144.994 116.984V150.493C144.994 151.494 145.494 151.994 146.495 151.994H152.574C153.624 151.994 154.149 152.299 154.149 152.91C154.149 153.276 153.771 153.752 153.014 154.338C152.281 154.924 151.366 155.485 150.267 156.022C149.168 156.56 147.923 157.023 146.532 157.414C145.14 157.805 143.871 158 142.723 158H139.134C138.133 158 137.633 157.475 137.633 156.425Z" fill="black"/>
</svg>
